<svg xmlns="http://www.w3.org/2000/svg" viewBox="0 0 872 98"><title>logo-bg</title><polygon points="499.11 59 507.46 59 503.29 31.11 499.11 59" style="fill:#513662"/><path d="M718.56,29H714V46h3.78C721,46,723,45,723,40.56V35.13C723,31.19,721.64,29,718.56,29Z" style="fill:#513662"/><path d="M436,0V98H872V0Zm49,63.1c0,8.83-3.86,13.9-12.53,13.9H459V22h13.47C481.14,22,485,26.38,485,35.21ZM510.14,77l-1.5-10H498l-1.5,10h-8l8.83-55h12.69l8.83,55Zm45.47,0H544.1L541,47.61,537.8,77H525.9l-6.15-55h8.43l4.65,43.5L537,22h8.35l4.33,43.81L554.19,22h7.56ZM594,77h-9.39L574,36.78V77h-8V22h10.88L586,54.59V22h8Zm45-13.9c0,8.83-4.67,13.9-13.34,13.9H612V22h13.66C634.33,22,639,26.38,639,35.21ZM653,77h-9V22h9Zm25.22,0H665.3l-8.51-55h8.75l6.62,45,6.62-45h8ZM699,77h-8V22h8Zm24.84,0a20.61,20.61,0,0,1-.84-7V61.29c0-5.12-1.68-7.29-5.62-7.29H714V77h-8V22h12.8c9,0,13.2,3.75,13.2,12.26v4.33c0,5.67-1.85,9.38-5.71,11.19,4.33,1.81,5.71,6,5.71,11.74V70c0,2.68-.2,5,.67,7ZM763,40h-9V34.26c0-3.94-1.74-5.44-4.5-5.44s-4.5,1.5-4.5,5.44V64c0,3.94,1.74,5.36,4.5,5.36S754,68,754,64V54h-4V46h13V63.49c0,8.83-4.49,13.87-13,13.87s-13-5-13-13.87V34.81c0-8.83,4.49-13.87,13-13.87s13,5,13,13.87Zm14,37h-9V22h9Zm29,0H783V22h9V69h14Zm12,0h-8V22h8Zm32-13.51c0,8.83-4.49,13.87-13,13.87s-13-5-13-13.87V34.81c0-8.83,4.49-13.87,13-13.87s13,5,13,13.87Z" style="fill:#513662"/><path d="M472.32,29H467V69h5.32c2.76,0,4.68-1.57,4.68-5.51V34.81C477,30.87,475.07,29,472.32,29Z" style="fill:#513662"/><path d="M625.5,29H621V69h4.5c2.76,0,4.5-1.57,4.5-5.51V34.81C630,30.87,628.26,29,625.5,29Z" style="fill:#513662"/><path d="M837.5,28.82c-2.76,0-4.5,1.5-4.5,5.44V64c0,3.94,1.74,5.44,4.5,5.44S842,68,842,64V34.26C842,30.32,840.26,28.82,837.5,28.82Z" style="fill:#513662"/><polygon points="63.11 59 71.46 59 67.29 31.11 63.11 59" style="fill:#311f39"/><path d="M282.56,29H278V46h3.78C285,46,287,45,287,40.56V35.13C287,31.19,285.64,29,282.56,29Z" style="fill:#311f39"/><path d="M0,0V98H436V0ZM49,63.1C49,71.93,45.14,77,36.47,77H23V22H36.47C45.14,22,49,26.38,49,35.21ZM74.14,77l-1.5-10H62l-1.5,10h-8l8.83-55H74.06l8.83,55Zm45.47,0H108.1L105,47.61,101.8,77H89.9L83.76,22h8.43l4.65,43.5L101,22h8.35l4.33,43.81L118.19,22h7.56ZM158,77h-9.39L138,36.78V77h-8V22h10.88L150,54.59V22h8Zm45-13.9c0,8.83-4.67,13.9-13.34,13.9H176V22h13.66C198.33,22,203,26.38,203,35.21ZM217,77h-9V22h9Zm25.22,0H229.3l-8.51-55h8.75l6.62,45,6.62-45h8ZM263,77h-8V22h8Zm24.84,0a20.61,20.61,0,0,1-.84-7V61.29c0-5.12-1.68-7.29-5.62-7.29H278V77h-8V22h12.8c9,0,13.2,3.75,13.2,12.26v4.33c0,5.67-1.85,9.38-5.71,11.19,4.33,1.81,5.71,6,5.71,11.74V70c0,2.68-.2,5,.67,7ZM327,40h-9V34.26c0-3.94-1.74-5.44-4.5-5.44s-4.5,1.5-4.5,5.44V64c0,3.94,1.74,5.36,4.5,5.36S318,68,318,64V54h-4V46h13V63.49c0,8.83-4.49,13.87-13,13.87s-13-5-13-13.87V34.81c0-8.83,4.49-13.87,13-13.87s13,5,13,13.87Zm14,37h-9V22h9Zm29,0H347V22h9V69h14Zm12,0h-8V22h8Zm32-13.51c0,8.83-4.49,13.87-13,13.87s-13-5-13-13.87V34.81c0-8.83,4.49-13.87,13-13.87s13,5,13,13.87Z" style="fill:#311f39"/><path d="M36.32,29H31V69h5.32C39.07,69,41,67.43,41,63.49V34.81C41,30.87,39.07,29,36.32,29Z" style="fill:#311f39"/><path d="M189.5,29H185V69h4.5c2.76,0,4.5-1.57,4.5-5.51V34.81C194,30.87,192.26,29,189.5,29Z" style="fill:#311f39"/><path d="M401.5,28.82c-2.76,0-4.5,1.5-4.5,5.44V64c0,3.94,1.74,5.44,4.5,5.44S406,68,406,64V34.26C406,30.32,404.26,28.82,401.5,28.82Z" style="fill:#311f39"/></svg>