<svg xmlns="http://www.w3.org/2000/svg" viewBox="0 0 1270.84 948.07"><defs><style>.a{fill:#070707;}</style></defs><title>signature</title><path class="a" d="M1235.12,297.48a592,592,0,0,0-56.53-117.14c-24.92-39.57-53.29-73.67-84.31-101.35-34.22-30.54-71-52.56-109.26-65.45-42.3-14.25-86.4-17.27-131.07-9-39.79,7.38-73.29,25.08-96.86,51.2A163.78,163.78,0,0,0,727.64,103c-9.75,23.54-9.46,47-9.15,71.76.47,37.42,14.78,76.06,41.39,111.75a277.53,277.53,0,0,0,91.29,78.17c3.56,1.87,6.35,3.5,7.21,5.92.78,2.22-.16,5.16-1.28,8.23-18.81,51.34-37.47,103.7-55.52,154.34-21.72,61-44.18,124-67.08,185.71-7.1.12-32.07-1.32-43.37-2-5.62-.32-9.33-.53-10.42-.56l-168-4.32L663.47,339.52a27.5,27.5,0,0,0-51-20.63L454,710.58l-104.66-2.69,149-368.37a27.5,27.5,0,1,0-51-20.63l-157,388c-35.2-.55-71-1.9-105.56-3.21l-5.74-.22,147.26-364a27.5,27.5,0,0,0-51-20.63L120.61,701.48c-15.79-.46-29.93-.78-43.16-1-3.33,0-6.81-.16-10.49-.28-19.29-.62-41.15-1.32-57.62,6.63a17.72,17.72,0,0,0-6,4.61A13.54,13.54,0,0,0,.1,721.92C1,729.13,7,734.33,9.61,736.24c8.52,6.31,19.42,10,33.34,11.37,21.09,2,42.79,1.82,63.77,1.63,9.71-.09,19.75-.19,29.54-.06a26.72,26.72,0,0,0,10,.21c33.8.89,68.15,1.85,101.38,2.77l20.61.57c32.3.9,69.89,1.94,107.29,2.89,63.39,1.61,115.63,2.7,164.4,3.42,14.81.22,29.85.09,44.4,0,9.1-.08,18.51-.15,27.75-.15,10.82,0,21.84.3,32.49.59l9.43.25c5.54.14,11.2,0,16.67-.11a226.51,226.51,0,0,1,25.08.36c4.89.44,8.38,1.79,10.37,4a12.13,12.13,0,0,1,2.63,6.32c.77,5.44-.21,9.75-3,13.17-8.05,9.89-30.06,11.3-47.75,12.42-10.08.64-18.79,1.2-24.53,3.12-22.35,7.5-39.32,26.21-45.41,50S587.91,897.64,604,915c11.56,12.48,26.67,19.84,42.57,20.73,18.68,1,34.74-7.45,50.24-15.67,2.86-1.51,5.82-3.08,8.71-4.54,11.65-5.87,20.84-7.48,30.75-5.37,11.61,2.47,22.73,7.46,33.49,12.27,7.38,3.3,15,6.72,22.85,9.38A314.39,314.39,0,0,0,886.81,948c2.36.05,4.72.08,7.09.08,61.91,0,124.67-17.26,177.47-48.92a367.84,367.84,0,0,0,43.9-31c3.06-2.51,6.1-5.08,9-7.63l2.25-2c72.85-64.35,120.36-155.13,137.38-262.52C1279.2,499.69,1269,393.66,1235.12,297.48Zm-557,575.78a41.61,41.61,0,0,1-17.35,20c-7.11,4-14.4,4.41-20.52,1.27-6.81-3.5-11.51-11.07-12.56-20.26a28.91,28.91,0,0,1,9.11-25.16,29.24,29.24,0,0,1,19.78-7.46,33.36,33.36,0,0,1,7.19.79c7.29,1.61,12.31,5,14.91,10C681.58,857.87,681.38,865.49,678.16,873.26Zm516.12-196.47c-25,58.67-51.23,105.15-97.8,141.32-75.9,58.94-148,80.86-248.89,75.67-25.32-1.3-70.58-7.12-89.16-31.43-10.72-14,.85-48.77,7.77-69.53,1.1-3.3,2.14-6.42,3-9.09,5.35-17.2,15-20.87,28.09-20.87,4.51,0,9.43.44,14.72.9,5.13.45,10.43.92,15.92,1,14.64.28,29.41.45,43.68.61,30.42.35,61.88.71,93.08,2.12,4.28.19,8.57.75,12.73,1.28,13.45,1.73,27.36,3.53,32.08-10.32,4.1-12,3.79-21.27-.91-27.49-7.77-10.27-24.61-9.38-36.92-8.73-2.65.14-5,.27-6.79.25-13.61-.09-27.41-.12-40.77-.14-22.56,0-45.88-.08-70.33-.45-6.43-.1-13.46,0-20.9.16-14.5.25-30.78.54-46-.81,2.26-7.83,8.63-26.94,11.3-35,1.42-4.28,2.12-6.36,2.3-7,14.41-48,31.35-97.23,51.77-150.41,9.1-23.71,18.76-47.86,29.53-73.84,4.89-11.79,10.09-24.15,15.46-36.74,1.15-2.7,2.15-5.56,3.12-8.33,4.57-13.1,8-21,20-19.55a220.15,220.15,0,0,1,23.49,4.24c2.89.69,5.83,1.45,8.67,2.18a185.14,185.14,0,0,0,22,4.75c14.55,1.92,33.45,1.19,40.85-13.19,3-5.9,1.53-12.2-4.12-17.28-9.21-8.28-22.56-14.08-40.82-17.73l-7.11-1.4c-10.38-2-20.18-3.92-30-6.89-3.27-1-5.32-2.55-6.25-4.76-2.81-6.69,3.72-19.13,8.49-28.22,1.46-2.78,2.84-5.4,3.87-7.68,8.24-18.23,15.7-37.75,14.52-57-.41-6.75-2.83-12.66-6.81-16.62-5.46-5.44-15.35-6.32-22.06-2-10.52,6.84-16.17,20.4-20.7,31.29l-1,2.35c-2.62,6.24-4.86,12.55-7,18.65-3.83,10.78-7.79,21.93-13.93,32.79-3.52,6.22-7.82,9.36-13.15,9.61-13.22.62-31.56-16.77-43-33.18-14.31-20.58-32.92-53-40.34-90.34-7-35.25-2.33-66.5,13.86-92.87C829.67,58.46,880,36.73,941.41,46.06c108.76,16.51,171,104.9,217.55,189.19,19.79,35.84,35.31,73.07,42.58,102.16,1.74,7,3.7,14,5.58,20.77,4.5,16.15,9.14,32.85,11.14,49.72,1.53,13,2.16,26.32,2.76,39.21.56,12,1.14,24.45,2.46,36.68C1230.59,549.76,1220.76,614.69,1194.28,676.79Z"/><path class="a" d="M322.61,269.48h0q1.48.14,2.95.14a30.81,30.81,0,1,0-2.95-.14Z"/><path class="a" d="M488.87,271.35h0q1.49.14,2.95.14a30.81,30.81,0,1,0-2.95-.14Z"/><path class="a" d="M656.21,271.13q1.49.14,2.95.14a30.81,30.81,0,1,0-2.95-.14Z"/></svg>