<svg xmlns="http://www.w3.org/2000/svg" viewBox="0 0 438.98 42.12"><title>tagline</title><path d="M22.65,41.65H16.12L15,34.18H7.06L5.94,41.65H0L6.59.47h9.47ZM7.88,28.59h6.24L11,7.76Z"/><path d="M31.41,11.82V41.65H25.59V.47h8.12l6.65,24.65V.47h5.76V41.65H39.47Z"/><path d="M66.35,17.82h8.88v5.88H66.35V35.76H77.53v5.88H59.88V.47H77.53V6.35H66.35Z"/><path d="M87.29,11.82V41.65H81.47V.47h8.12l6.65,24.65V.47H102V41.65H95.35Z"/><path d="M106.64.47h10.24c6.47,0,9.65,3.59,9.65,10.18V31.47c0,6.59-3.18,10.18-9.65,10.18H106.64Zm6.47,5.88V35.76h3.65c2.06,0,3.29-1.06,3.29-4V10.35c0-2.94-1.24-4-3.29-4Z"/><path d="M137.11,17.82H146v5.88h-8.88V35.76h11.18v5.88H130.64V.47h17.65V6.35H137.11Z"/><path d="M173.23,41.65H166.7l-1.12-7.47h-7.94l-1.12,7.47h-5.94L157.17.47h9.47ZM158.46,28.59h6.24L161.58,7.76Z"/><path d="M184.52,34.06,189.46.47h5.94l-6.35,41.18h-9.65L173.05.47h6.53Z"/><path d="M197.82,10.35c0-6.59,3.47-10.35,9.82-10.35s9.82,3.76,9.82,10.35V31.76c0,6.59-3.47,10.35-9.82,10.35s-9.82-3.76-9.82-10.35Zm6.47,21.82c0,2.94,1.29,4.06,3.35,4.06S211,35.12,211,32.18V9.94c0-2.94-1.29-4.06-3.35-4.06S204.29,7,204.29,9.94Z"/><path d="M235.17,41.65c-.35-1.06-.59-1.71-.59-5.06V30.12c0-3.82-1.29-5.24-4.24-5.24h-2.23V41.65h-6.47V.47h9.77c6.71,0,9.59,3.12,9.59,9.47v3.23c0,4.24-1.35,7-4.24,8.35,3.23,1.35,4.29,4.47,4.29,8.76v6.35a12.12,12.12,0,0,0,.71,5ZM228.11,6.35V19h2.53c2.41,0,3.88-1.06,3.88-4.35V10.59c0-2.94-1-4.24-3.29-4.24Z"/><path d="M245.29.47h6.47V41.65h-6.47Z"/><path d="M262.23,11.82V41.65H256.4V.47h8.12l6.65,24.65V.47h5.76V41.65h-6.65Z"/><path d="M291.28,18.71h9.06V31.76c0,6.59-3.29,10.35-9.65,10.35S281,38.35,281,31.76V10.35C281,3.76,284.34,0,290.69,0s9.65,3.76,9.65,10.35v4h-6.12V9.94c0-2.94-1.29-4.06-3.35-4.06S287.52,7,287.52,9.94V32.18c0,2.94,1.29,4,3.35,4s3.35-1.06,3.35-4V24.59h-2.94Z"/><path d="M334.58,41.65H328l-1.12-7.47H319l-1.12,7.47h-5.94L318.52.47H328ZM319.81,28.59H326L322.93,7.76Z"/><path d="M351.1,41.65c-.35-1.06-.59-1.71-.59-5.06V30.12c0-3.82-1.29-5.24-4.23-5.24H344V41.65h-6.47V.47h9.77c6.71,0,9.59,3.12,9.59,9.47v3.23c0,4.24-1.35,7-4.24,8.35C355.93,22.88,357,26,357,30.29v6.35a12.12,12.12,0,0,0,.71,5ZM344,6.35V19h2.53c2.41,0,3.88-1.06,3.88-4.35V10.59c0-2.94-1-4.24-3.29-4.24Z"/><path d="M359.34.47h20V6.35h-6.76V41.65H366.1V6.35h-6.76Z"/><path d="M382.16.47h6.47V41.65h-6.47Z"/><path d="M402,0c6.29,0,9.53,3.76,9.53,10.35v1.29h-6.12V9.94c0-2.94-1.18-4.06-3.24-4.06S399,7,399,9.94c0,8.47,12.65,10.06,12.65,21.82,0,6.59-3.29,10.35-9.65,10.35s-9.65-3.76-9.65-10.35V29.23h6.12v2.94c0,2.94,1.29,4,3.35,4s3.35-1.06,3.35-4c0-8.47-12.65-10.06-12.65-21.82C392.51,3.76,395.75,0,402,0Z"/><path d="M413.45.47h20V6.35h-6.76V41.65h-6.47V6.35h-6.76Z"/><path d="M439,35.41v6.24h-6.24V35.41Z"/></svg>